<svg width="512" height="512" viewBox="0 0 512 512" fill="none" xmlns="http://www.w3.org/2000/svg">
<path d="M4.3949 440.828C4.24131 410.574 4.02109 380.838 3.98723 351.101C3.9796 344.401 3.95019 337.657 7.25359 331.38C12.883 320.682 25.3235 314.685 36.7622 317.483C49.6076 320.625 57.7852 330.655 57.8026 343.43C57.8356 367.655 57.8054 391.88 57.842 416.104C57.8448 417.953 57.4023 419.885 58.3855 421.716C60.3043 421.991 61.0689 420.393 62.079 419.376C99.6391 381.565 137.164 343.72 174.718 305.904C188.935 291.588 203.104 277.222 217.536 263.128C221.233 259.517 220.731 257.204 217.4 253.859C165.303 201.551 113.288 149.16 61.2484 96.7941C60.5347 96.0759 59.9007 95.1947 58.6148 95.1671C57.2285 96.7585 57.8712 98.7494 57.8605 100.542C57.784 113.347 57.8616 126.152 57.795 138.956C57.7207 153.233 46.0292 164.841 31.7319 164.944C16.4746 165.054 4.5533 154.042 4.4929 139.139C4.34071 101.591 4.37738 64.0422 4.51025 26.4942C4.56041 12.3226 16.1129 1.23513 30.5013 1.23122C135.56 1.20266 240.62 1.20783 345.679 1.2054C391.416 1.20436 437.158 1.56508 482.889 1.0019C497.008 0.828019 511.039 12.6239 511 29.3921C510.65 180.625 510.801 331.858 510.787 483.092C510.786 499.614 499.787 510.752 483.332 510.759C360.562 510.811 237.792 510.629 115.023 510.984C87.7015 511.063 60.3857 510.831 33.0672 510.789C15.7545 510.763 5.42461 501.756 4.44527 484.383C3.63911 470.082 4.35457 455.695 4.3949 440.828ZM457.463 267.93C457.462 240.07 457.464 212.21 457.459 184.35C457.454 156.696 457.491 129.042 457.431 101.513C339.008 220.459 221.304 338.682 103.464 457.042C105.674 457.042 108.063 457.041 110.453 457.042C223.426 457.055 336.4 457.069 449.373 457.081C457.438 457.082 457.456 457.073 457.457 449.106C457.463 389.06 457.462 329.014 457.463 267.93ZM109.307 68.3036C157.81 117.093 206.311 165.885 254.82 214.669C260.195 220.075 260.238 220.077 265.488 214.796C291.506 188.633 317.505 162.45 343.522 136.286C368.442 111.225 393.39 86.1916 418.274 61.0948C419.852 59.5031 421.916 58.0799 422.467 55.259C313.976 55.259 205.934 55.259 96.6037 55.259C101.192 59.9729 104.993 63.8772 109.307 68.3036Z" fill="#2F2E40"/>
<path d="M32.1108 208.099C55.3629 213.492 58.4547 237.541 48.77 250.184C41.4205 259.778 27.6749 263.361 16.4092 258.144C4.86778 252.799 -1.08315 240.703 1.66318 228.169C4.2074 216.558 15.0311 207.9 27.0406 207.889C28.5827 207.887 30.1248 207.972 32.1108 208.099Z" fill="#2F2E40"/>
</svg>
