<svg width="512" height="512" viewBox="0 0 512 512" fill="none" xmlns="http://www.w3.org/2000/svg">
<g clip-path="url(#clip0_847_550)">
<rect width="512" height="512" fill="white"/>
<path d="M3.40823 441.553C3.25403 411.18 3.03295 381.327 2.99895 351.474C2.9913 344.748 2.96177 337.977 6.27812 331.675C11.9296 320.935 24.4189 314.915 35.9025 317.724C48.7983 320.878 57.0079 330.948 57.0253 343.772C57.0585 368.092 57.0282 392.412 57.0649 416.732C57.0677 418.588 56.6235 420.527 57.6106 422.366C59.5369 422.642 60.3045 421.037 61.3185 420.016C99.0259 382.058 136.698 344.064 174.4 306.1C188.672 291.728 202.897 277.305 217.385 263.156C221.097 259.53 220.593 257.209 217.248 253.851C164.947 201.337 112.728 148.741 60.4847 96.1697C59.7682 95.4487 59.1317 94.5641 57.8407 94.5364C56.449 96.1341 57.0942 98.1327 57.0835 99.9327C57.0066 112.787 57.0846 125.642 57.0177 138.497C56.9431 152.83 45.2058 164.484 30.8524 164.587C15.5353 164.697 3.56724 153.642 3.50661 138.681C3.35382 100.986 3.39063 63.2894 3.52402 25.5942C3.57438 11.367 15.1722 0.236051 29.617 0.232122C135.088 0.203459 240.559 0.208644 346.03 0.20621C391.947 0.20516 437.869 0.567292 483.779 0.00190451C497.953 -0.172656 512.039 11.6695 512 28.5035C511.648 180.329 511.801 332.156 511.787 483.982C511.785 500.569 500.743 511.751 484.223 511.758C360.972 511.81 237.721 511.627 114.471 511.984C87.0415 512.063 59.6186 511.83 32.1929 511.788C14.8123 511.762 4.44197 502.72 3.45879 485.279C2.64946 470.922 3.36773 456.478 3.40823 441.553ZM458.253 267.976C458.252 240.007 458.254 212.038 458.249 184.069C458.244 156.307 458.281 128.544 458.221 100.907C339.334 220.319 221.168 339.006 102.866 457.83C105.084 457.83 107.483 457.83 109.882 457.83C223.299 457.844 336.715 457.858 450.132 457.87C458.228 457.871 458.246 457.862 458.247 449.863C458.253 389.582 458.252 329.3 458.253 267.976ZM108.731 67.5676C157.425 116.549 206.116 165.532 254.815 214.507C260.211 219.934 260.254 219.936 265.525 214.635C291.645 188.369 317.746 162.083 343.866 135.816C368.883 110.657 393.929 85.5257 418.91 60.3305C420.495 58.7325 422.566 57.3037 423.12 54.4718C314.203 54.4718 205.737 54.4718 95.9786 54.4718C100.585 59.2042 104.401 63.1238 108.731 67.5676Z" fill="#2F2E40"/>
<path d="M31.2328 207.911C54.5761 213.325 57.68 237.468 47.9573 250.161C40.579 259.793 26.7795 263.39 15.4696 258.152C3.88295 252.787 -2.09132 240.643 0.665782 228.06C3.21997 216.404 14.0861 207.712 26.1428 207.7C27.6909 207.699 29.239 207.784 31.2328 207.911Z" fill="#2F2E40"/>
</g>
<defs>
<clipPath id="clip0_847_550">
<rect width="512" height="512" fill="white"/>
</clipPath>
</defs>
</svg>
