<svg width="247" height="245" viewBox="0 0 247 245" fill="none" xmlns="http://www.w3.org/2000/svg">
<path d="M10.2797 0.584294C6.97969 1.78429 4.72969 3.6343 3.17969 6.4343L1.67969 9.1343V39.1343C1.67969 68.9843 1.67969 69.1343 2.77969 71.1843C4.87969 75.1343 10.0297 78.3843 14.1797 78.3843C16.5297 78.3843 20.5797 76.7343 22.4797 75.0343C26.4797 71.4343 26.6297 70.7343 26.9297 56.4843L27.1797 43.8843L67.1797 83.8843L107.18 123.884L67.0297 164.034L26.9297 204.134V183.834C26.9297 161.134 26.7797 159.884 23.6297 156.384C17.6297 149.734 7.02969 151.084 2.77969 159.084L1.67969 161.134V198.384C1.67969 235.534 1.67969 235.634 2.72969 237.634C4.12969 240.184 6.12969 242.184 8.67969 243.584L10.6797 244.634H123.93H237.18L239.18 243.584C241.73 242.184 243.73 240.184 245.13 237.634L246.18 235.634V122.384V9.1343L245.13 7.1343C243.73 4.5843 241.73 2.5843 239.18 1.1843L237.18 0.134297L124.68 0.0342986C30.9297 -0.0657014 11.8797 0.034294 10.2797 0.584294ZM165.53 65.4843L125.43 105.634L85.3297 65.4843L45.1797 25.3843H125.43H205.68L165.53 65.4843ZM220.93 132.884V219.384H134.33H47.6797L134.18 132.884C181.73 85.2843 220.73 46.3843 220.78 46.3843C220.88 46.3843 220.93 85.2843 220.93 132.884Z" fill="white"/>
<path d="M9.67645 99.8339C-1.57355 102.784 -3.52365 117.084 6.52645 122.684C14.5764 127.084 24.9267 121.034 24.9267 111.884C24.9267 104.284 16.8765 97.9339 9.67645 99.8339Z" fill="white"/>
</svg>
