<svg width="35" height="36" viewBox="0 0 35 36" fill="none" xmlns="http://www.w3.org/2000/svg">
<path d="M1.33474 0.69883C0.863793 0.870518 0.542692 1.1352 0.321489 1.53579L0.107422 1.92208V6.21421C0.107422 10.4849 0.107422 10.5063 0.264405 10.7996C0.564099 11.3648 1.29906 11.8297 1.89132 11.8297C2.22669 11.8297 2.80467 11.5937 3.07582 11.3504C3.64667 10.8354 3.66807 10.7352 3.71089 8.69648L3.74657 6.89379L9.45503 12.6166L15.1635 18.3394L9.43362 24.0837L3.71089 29.8209V26.9165C3.71089 23.6688 3.68948 23.49 3.23994 22.9892C2.38367 22.0378 0.870929 22.231 0.264405 23.3755L0.107422 23.6688V28.9982C0.107422 34.3133 0.107422 34.3276 0.257269 34.6137C0.457065 34.9786 0.742488 35.2647 1.1064 35.465L1.39183 35.6152H17.5539H33.716L34.0014 35.465C34.3653 35.2647 34.6507 34.9786 34.8505 34.6137L35.0004 34.3276V18.1248V1.92208L34.8505 1.63594C34.6507 1.27111 34.3653 0.984974 34.0014 0.784672L33.716 0.634449L17.6609 0.620144C4.28173 0.605835 1.56308 0.620144 1.33474 0.69883ZM23.4907 9.98412L17.768 15.7284L12.0452 9.98412L6.31537 4.24698H17.768H29.2206L23.4907 9.98412ZM31.3969 19.6271V32.0027H19.0381H6.67215L19.0167 19.6271C25.8026 12.8169 31.3684 7.25147 31.3755 7.25147C31.3898 7.25147 31.3969 12.8169 31.3969 19.6271Z" fill="black"/>
<path d="M1.44041 14.8851C-0.234242 15.3302 -0.524515 17.4875 0.971509 18.3324C2.16982 18.9962 3.7105 18.0835 3.7105 16.703C3.7105 15.5565 2.51219 14.5985 1.44041 14.8851Z" fill="black"/>
</svg>
